<svg width="33" height="42" viewBox="0 0 33 42" fill="none" xmlns="http://www.w3.org/2000/svg">
<path d="M30.8611 5.78125H14.1354C13.5052 5.78125 12.9965 6.2958 12.9965 6.92597V39.5216C12.9965 40.1518 13.5052 40.6606 14.1354 40.6606H30.8611C31.4912 40.6606 32 40.1518 32 39.5216V6.92597C32 6.2958 31.4912 5.78125 30.8611 5.78125ZM23.4666 37.9375C23.218 38.1861 22.8769 38.3365 22.5011 38.3365C21.7438 38.3365 21.1309 37.7294 21.1309 36.972C21.1309 36.5905 21.2812 36.2551 21.5298 36.0065C21.7784 35.7579 22.1253 35.6076 22.5011 35.6076C22.8769 35.6076 23.218 35.7579 23.4666 36.0065C23.7094 36.2551 23.8655 36.5905 23.8655 36.972C23.8655 37.3536 23.7094 37.6889 23.4666 37.9375Z" stroke="black" stroke-width="0.965498" stroke-miterlimit="10"/>
<path d="M20.0035 3.91962V5.78124H14.1354C13.5052 5.78124 12.9965 6.29578 12.9965 6.92596V35.8793H3.91962C2.3066 35.8793 1 34.5727 1 32.9597V3.91962C1 2.3066 2.3066 1 3.91962 1H17.0839C18.6969 1 20.0035 2.3066 20.0035 3.91962Z" stroke="black" stroke-width="0.965498" stroke-miterlimit="10"/>
<path d="M12.9966 31.6877V32.6937H7.84533C7.56782 32.6937 7.34235 32.4682 7.34235 32.1907C7.34235 31.9132 7.56782 31.6877 7.84533 31.6877H12.9966Z" stroke="black" stroke-width="0.965498" stroke-miterlimit="10"/>
<path d="M10.8112 3.56105C10.8112 3.39183 10.674 3.25464 10.5048 3.25464C10.3356 3.25464 10.1984 3.39183 10.1984 3.56105C10.1984 3.73028 10.3356 3.86747 10.5048 3.86747C10.674 3.86747 10.8112 3.73028 10.8112 3.56105Z" stroke="black" stroke-width="0.965498" stroke-miterlimit="10"/>
</svg>
