<svg width="29" height="30" viewBox="0 0 29 30" fill="none" xmlns="http://www.w3.org/2000/svg">
<path d="M1 8L6.10417 10.8M6.10417 10.8L14.125 15M6.10417 10.8L1 12.2M6.10417 10.8L5.375 5.9M27.25 22L22.1458 19.2M22.1458 19.2L14.125 15M22.1458 19.2L22.875 24.1M22.1458 19.2L27.25 17.8M14.125 15L6.10417 19.2M14.125 15V5.2M14.125 15V24.1M14.125 15L22.1458 10.8M6.10417 19.2L1 22M6.10417 19.2L1 17.8M6.10417 19.2L5.375 24.1M14.125 5.2V1M14.125 5.2L10.4792 3.8M14.125 5.2L17.7708 3.8M14.125 24.1V29M14.125 24.1L17.7708 26.2M14.125 24.1L10.4792 26.2M22.1458 10.8L27.25 8M22.1458 10.8L27.25 12.2M22.1458 10.8L22.875 5.9" stroke="#333333" stroke-width="1.75" stroke-linecap="round" stroke-linejoin="round"/>
</svg>
