<svg width="40" height="40" viewBox="0 0 40 40" fill="none" xmlns="http://www.w3.org/2000/svg">
<path d="M21.7216 5C20.8896 6.93634 20.8217 8.053 21.29 10.1119" stroke="black" stroke-linecap="round"/>
<path d="M21.7217 11.8159C23.2035 14.6524 23.003 15.6876 21.7217 17.9502" stroke="black" stroke-linecap="round"/>
<path d="M26.2648 5C23.2429 9.08952 28.8547 13.5198 26.6964 17.9502" stroke="black" stroke-linecap="round"/>
<path d="M13.082 7C13.082 8.61442 14.0507 11.8433 16.1641 11.8433" stroke="black" stroke-linecap="round" stroke-linejoin="round"/>
<path d="M13.082 17.5671C13.082 15.6592 13.6984 11.8433 16.1641 11.8433" stroke="black" stroke-linecap="round" stroke-linejoin="round"/>
<path d="M13.082 7C13.082 8.61442 12.1134 11.8433 9.99996 11.8433" stroke="black" stroke-linecap="round" stroke-linejoin="round"/>
<path d="M13.082 17.5671C13.082 15.6592 12.4656 11.8433 9.99996 11.8433" stroke="black" stroke-linecap="round" stroke-linejoin="round"/>
<path d="M24.082 24C24.082 25.6144 25.0507 28.8433 27.1641 28.8433" stroke="black" stroke-linecap="round" stroke-linejoin="round"/>
<path d="M24.082 34.5671C24.082 32.6592 24.6984 28.8433 27.1641 28.8433" stroke="black" stroke-linecap="round" stroke-linejoin="round"/>
<path d="M24.082 24C24.082 25.6144 23.1134 28.8433 21 28.8433" stroke="black" stroke-linecap="round" stroke-linejoin="round"/>
<path d="M24.082 34.5671C24.082 32.6592 23.4656 28.8433 21 28.8433" stroke="black" stroke-linecap="round" stroke-linejoin="round"/>
<path d="M16.914 35.4092C17.746 33.4728 17.7773 33.0236 17.3455 30.9789" stroke="black" stroke-linecap="round"/>
<path d="M16.4823 29.2749C15.0005 26.4385 15.201 24.7216 16.4823 22.459" stroke="black" stroke-linecap="round"/>
<path d="M11.9155 22.459C8.89369 26.5485 14.5054 30.9788 12.3471 35.4091" stroke="black" stroke-linecap="round"/>
</svg>
