<svg width="39" height="14" viewBox="0 0 39 14" fill="none" xmlns="http://www.w3.org/2000/svg">
<path d="M38.25 5.53113C38.25 6.00487 37.9444 6.47097 37.3866 6.89887C35.0026 8.72508 27.9575 10.0546 19.6288 10.0546C11.3001 10.0546 4.24744 8.72508 1.86344 6.89887C1.30564 6.47097 1 6.00487 1 5.53113C1 3.02487 9.344 1 19.6288 1C29.9136 1 38.25 3.02487 38.25 5.53113Z" stroke="black" stroke-linecap="round" stroke-linejoin="round"/>
<path d="M38.25 8.25903C38.25 10.7653 29.9136 12.7902 19.6288 12.7902C9.344 12.7902 1 10.7653 1 8.25903C1 7.78529 1.30564 7.32682 1.86344 6.89893C4.24744 8.72513 11.3001 10.0547 19.6288 10.0547C27.9575 10.0547 35.0026 8.72513 37.3866 6.89893C37.9444 7.32682 38.25 7.78529 38.25 8.25903Z" stroke="black" stroke-linecap="round" stroke-linejoin="round"/>
<path d="M38.25 5.53125V8.51889" stroke="black" stroke-linecap="round" stroke-linejoin="round"/>
<path d="M1 5.53101V8.51865" stroke="black" stroke-linecap="round" stroke-linejoin="round"/>
</svg>
