<svg width="40" height="40" viewBox="0 0 40 40" fill="none" xmlns="http://www.w3.org/2000/svg">
<path d="M19.414 16.2139C19.5913 16.2245 19.7897 16.2297 20 16.2297C20.2104 16.2297 20.4075 16.2245 20.5861 16.2139C20.3943 16.2152 20.1985 16.2165 20 16.2165C19.8016 16.2165 19.6071 16.2165 19.414 16.2139Z" fill="#333333"/>
<path d="M19.4138 16.2139C19.0275 16.1914 18.7418 16.1491 18.6624 16.0988C16.7416 16.0657 15.3023 15.9559 15.2931 15.8355C15.2851 15.7363 17.4361 15.5776 19.9985 15.5617C21.3638 15.5538 22.4565 15.604 23.3163 15.6583C24.0942 15.7072 24.7133 15.7641 24.704 15.8355C24.6908 15.9427 23.2727 16.0551 21.3413 16.0935C21.2725 16.1464 20.9814 16.1914 20.5833 16.2139C22.9816 16.1914 24.8403 16.03 24.8403 15.8342C24.8403 15.6239 22.6721 15.4519 19.9972 15.4519C17.3224 15.4519 15.1568 15.6239 15.1568 15.8355C15.1568 16.0313 17.0154 16.1914 19.4138 16.2152V16.2139Z" fill="#333333" stroke="#333333" stroke-miterlimit="10" stroke-linecap="round" stroke-linejoin="round"/>
<path d="M19.9999 16.1079C19.5369 16.1079 19.0884 16.1053 18.6625 16.0973C18.7418 16.1489 19.0276 16.1913 19.4139 16.2124C19.6057 16.2137 19.8015 16.2151 19.9999 16.2151C20.1983 16.2151 20.3928 16.2151 20.5859 16.2124C20.9841 16.1899 21.2738 16.145 21.344 16.092C20.918 16.1013 20.4669 16.1066 20.0012 16.1066L19.9999 16.1079Z" fill="#333333"/>
<path d="M18.64 16.0699C18.64 15.9812 19.2485 15.9098 19.9999 15.9098C20.7513 15.9098 21.3598 15.9812 21.3598 16.0699C21.3598 16.0778 21.3532 16.0857 21.3426 16.0937C23.274 16.054 24.6921 15.9429 24.7054 15.8357C24.7146 15.7643 24.0942 15.7074 23.3177 15.6584C22.4578 15.6042 21.3651 15.5539 19.9999 15.5619C17.4361 15.5764 15.2865 15.7365 15.2944 15.8357C15.3037 15.9548 16.7416 16.0659 18.6638 16.099C18.6492 16.0897 18.64 16.0804 18.64 16.0699Z" fill="#333333" stroke="#333333" stroke-miterlimit="10" stroke-linecap="round" stroke-linejoin="round"/>
<path d="M19.9998 16.1081C20.4667 16.1081 20.9165 16.1015 21.3425 16.0935C21.3531 16.0856 21.3597 16.0777 21.3597 16.0697C21.3597 15.9811 20.7511 15.9097 19.9998 15.9097C19.2484 15.9097 18.6398 15.9811 18.6398 16.0697C18.6398 16.0803 18.6491 16.0896 18.6636 16.0988C19.0896 16.1068 19.5381 16.1094 20.0011 16.1094L19.9998 16.1081Z" fill="#333333"/>
<path d="M24.843 15.8354V20.1136" stroke="#333333" stroke-miterlimit="10" stroke-linecap="round" stroke-linejoin="round"/>
<path d="M15.1569 20.1136V15.8354" stroke="#333333" stroke-miterlimit="10" stroke-linecap="round" stroke-linejoin="round"/>
<path d="M24.843 32.0553C21.6006 32.6308 18.3715 32.6281 15.1569 32.0553V19.9602C18.5593 20.4166 21.8083 20.4722 24.843 19.9602V32.0553Z" stroke="#333333" stroke-miterlimit="10" stroke-linecap="round" stroke-linejoin="round"/>
<path d="M15.1569 37.9762V32.0554" stroke="#333333" stroke-miterlimit="10" stroke-linecap="round" stroke-linejoin="round"/>
<path d="M24.8431 32.0554V37.9729" stroke="#333333" stroke-miterlimit="10" stroke-linecap="round" stroke-linejoin="round"/>
<path d="M19.9998 16.2298C20.7508 16.2298 21.3597 16.1581 21.3597 16.0697C21.3597 15.9813 20.7508 15.9097 19.9998 15.9097C19.2487 15.9097 18.6398 15.9813 18.6398 16.0697C18.6398 16.1581 19.2487 16.2298 19.9998 16.2298Z" fill="#333333" stroke="#333333" stroke-miterlimit="10" stroke-linecap="round" stroke-linejoin="round"/>
<path d="M24.7067 15.8357C24.6908 15.9667 22.5835 16.1042 20.0012 16.1095C17.4494 16.1148 15.3063 15.9825 15.2957 15.8357C15.2878 15.7365 17.4388 15.5777 20.0012 15.5619C21.3664 15.5539 22.4591 15.6042 23.319 15.6584C24.0969 15.7074 24.716 15.7643 24.7067 15.8357Z" stroke="#333333" stroke-miterlimit="10" stroke-linecap="round" stroke-linejoin="round"/>
<path d="M19.9999 16.2182C22.6747 16.2182 24.843 16.0471 24.843 15.8359C24.843 15.6248 22.6747 15.4536 19.9999 15.4536C17.3252 15.4536 15.1569 15.6248 15.1569 15.8359C15.1569 16.0471 17.3252 16.2182 19.9999 16.2182Z" stroke="#333333" stroke-miterlimit="10" stroke-linecap="round" stroke-linejoin="round"/>
<path d="M21.3457 2.02393C22.212 3.53998 20.696 3.97314 20.0462 3.97314C19.3243 3.97314 17.8804 4.4063 17.8804 6.13893C17.8804 7.87156 19.3243 8.30472 20.0462 8.30472C20.696 8.30472 21.9954 8.69456 21.9954 10.2539C21.9954 12.2031 20.0462 11.1202 20.0462 13.7192" stroke="#333333" stroke-linecap="round" stroke-linejoin="round"/>
</svg>
