<svg width="40" height="40" viewBox="0 0 40 40" fill="none" xmlns="http://www.w3.org/2000/svg">
<path fill-rule="evenodd" clip-rule="evenodd" d="M9.79169 14.3752H5.83335C4.91335 14.3752 4.16669 15.1218 4.16669 16.0418V23.9585C4.16669 24.8785 4.91335 25.6252 5.83335 25.6252H9.79169L16.4234 31.2435C17.5067 32.1618 19.1667 31.3918 19.1667 29.9718V10.0285C19.1667 8.60851 17.505 7.83851 16.4234 8.75684L9.79169 14.3752Z" stroke="#333333" stroke-width="1.66667" stroke-linecap="round" stroke-linejoin="round"/>
<path d="M25.895 26.6299C27.8316 25.4265 29.1666 22.9232 29.1666 20.0082C29.1666 17.0932 27.8316 14.5882 25.895 13.3699" stroke="#333333" stroke-width="1.66667" stroke-linecap="round" stroke-linejoin="round"/>
<path d="M30.8416 31.7751C33.855 29.1835 35.8333 24.8835 35.8333 20.0051C35.8333 15.1201 33.8516 10.8168 30.8333 8.22681" stroke="#333333" stroke-width="1.66667" stroke-linecap="round" stroke-linejoin="round"/>
</svg>
