<svg width="30" height="35" viewBox="0 0 30 35" fill="none" xmlns="http://www.w3.org/2000/svg">
<path d="M29.2917 17.4125C29.2917 14.1113 28.1616 11.0747 26.2637 8.66779C24.915 6.95249 23.1753 5.55782 21.181 4.61606C19.3507 3.7505 17.3047 3.2674 15.1451 3.2674C12.8748 3.2674 10.7296 3.80227 8.82885 4.75409C6.87199 5.73036 5.17395 7.14804 3.86698 8.87628C2.06685 11.2487 1 14.2062 1 17.4125C1 20.6188 2.03953 23.5002 3.79653 25.8567C5.11212 27.6238 6.83174 29.0731 8.81734 30.0681C10.721 31.0228 12.8705 31.5591 15.1451 31.5591C17.4197 31.5591 19.5692 31.0228 21.4729 30.0681C23.4599 29.0731 25.1796 27.6238 26.4952 25.8567C28.2521 23.5002 29.2917 20.5771 29.2917 17.4125Z" stroke="#131313" stroke-miterlimit="10"/>
<path d="M29.2914 29.6138C29.2914 27.8381 28.1124 26.3399 26.4949 25.8568C25.1793 27.6239 23.4597 29.0732 21.4727 30.0681C21.697 32.0207 23.3562 33.5361 25.3691 33.5361C27.5344 33.5361 29.2914 31.7806 29.2914 29.6138Z" stroke="#131313" stroke-miterlimit="10"/>
<path d="M8.81734 30.0681C6.83173 29.0732 5.11212 27.6239 3.79653 25.8568C2.179 26.3385 1 27.8381 1 29.6138C1 31.7806 2.75556 33.5361 4.92233 33.5361C6.93526 33.5361 8.59304 32.0207 8.81734 30.0681Z" stroke="#131313" stroke-miterlimit="10"/>
<path d="M29.0143 4.92368C29.0143 2.75691 27.2573 0.999915 25.092 0.999915C22.9266 0.999915 21.3364 2.593 21.1812 4.61599C23.1754 5.55775 24.9151 6.95242 26.2638 8.66772C27.8569 8.16881 29.0143 6.68068 29.0143 4.92368Z" stroke="#131313" stroke-miterlimit="10"/>
<path d="M8.82885 4.75403C8.65487 2.7483 6.97264 1.17678 4.92233 1.17678C2.75556 1.17678 1 2.93234 1 5.09911C1 6.90068 2.21351 8.41756 3.86698 8.87622C5.17395 7.14798 6.87199 5.7303 8.82885 4.75403Z" stroke="#131313" stroke-miterlimit="10"/>
<path d="M20.8986 17.4492C20.8986 16.1767 20.4629 15.0078 19.7325 14.0804C19.2135 13.419 18.542 12.8827 17.7742 12.519C17.0697 12.1854 16.2803 11.9999 15.4493 11.9999C14.5751 11.9999 13.7484 12.2055 13.0165 12.5722C12.2631 12.9489 11.6089 13.4938 11.1042 14.1609C10.4112 15.0754 10 16.2141 10 17.4492C10 18.6843 10.4011 19.7942 11.0769 20.7029C11.5845 21.383 12.2459 21.9423 13.0108 22.3248C13.744 22.6929 14.5722 22.8999 15.4493 22.8999C16.3263 22.8999 17.1531 22.6929 17.8878 22.3248C18.6527 21.9409 19.3155 21.383 19.8231 20.7029C20.5003 19.7957 20.9 18.6684 20.9 17.4492H20.8986Z" fill="#131313"/>
</svg>
